{
  "accessors": [
    {
      "bufferView": 2,
      "componentType": 5126,
      "count": 125,
      "max": [
        -2.9836831092834473,
        39.792816162109375,
        1.3034112453460693
      ],
      "min": [
        -5.5905022621154785,
        38.93743896484375,
        -1.3034111261367798
      ],
      "type": "VEC3"
    },
    {
      "bufferView": 2,
      "byteOffset": 1500,
      "componentType": 5126,
      "count": 125,
      "max": [
        0.92164814472198486,
        -0.38802504539489746,
        0.92164701223373413
      ],
      "min": [
        -0.92164844274520874,
        -1,
        -0.92164790630340576
      ],
      "type": "VEC3"
    },
    {
      "bufferView": 3,
      "componentType": 5126,
      "count": 125,
      "max": [
        1,
        0.92164844274520874,
        0.53342914581298828,
        1
      ],
      "min": [
        -0.87818193435668945,
        -0.92164796590805054,
        -0.18561184406280518,
        1
      ],
      "type": "VEC4"
    },
    {
      "bufferView": 1,
      "componentType": 5126,
      "count": 125,
      "max": [
        0.81322234869003296,
        0.24543768167495728
      ],
      "min": [
        0.61981660127639771,
        0.11612933874130249
      ],
      "type": "VEC2"
    },
    {
      "bufferView": 0,
      "componentType": 5125,
      "count": 492,
      "max": [
        124
      ],
      "min": [
        0
      ],
      "type": "SCALAR"
    },
    {
      "bufferView": 2,
      "byteOffset": 3000,
      "componentType": 5126,
      "count": 7245,
      "max": [
        1.219032883644104,
        48.839107513427734,
        1.605731725692749
      ],
      "min": [
        -5.8928227424621582,
        0.060042858123779297,
        -1.605731725692749
      ],
      "type": "VEC3"
    },
    {
      "bufferView": 2,
      "byteOffset": 89940,
      "componentType": 5126,
      "count": 7245,
      "max": [
        1,
        1,
        1
      ],
      "min": [
        -1,
        -1,
        -1
      ],
      "type": "VEC3"
    },
    {
      "bufferView": 3,
      "byteOffset": 2000,
      "componentType": 5126,
      "count": 7245,
      "max": [
        1,
        1,
        1,
        1
      ],
      "min": [
        -0.99999988079071045,
        -1,
        -1,
        -1
      ],
      "type": "VEC4"
    },
    {
      "bufferView": 1,
      "byteOffset": 1000,
      "componentType": 5126,
      "count": 7245,
      "max": [
        0.99182629585266113,
        0.89587938785552979
      ],
      "min": [
        0.035733699798583984,
        0.027114540338516235
      ],
      "type": "VEC2"
    },
    {
      "bufferView": 0,
      "byteOffset": 1968,
      "componentType": 5125,
      "count": 22938,
      "max": [
        7244
      ],
      "min": [
        0
      ],
      "type": "SCALAR"
    }
  ],
  "asset": {
    "extras": {
      "author": "bez_glaza (https://sketchfab.com/bez_glaza)",
      "license": "CC-BY-4.0 (http://creativecommons.org/licenses/by/4.0/)",
      "source": "https://sketchfab.com/models/6881aa1e84b047d79860fa9297e05e22",
      "title": "Street Lamp"
    },
    "generator": "Sketchfab-3.43.3",
    "version": "2.0"
  },
  "bufferViews": [
    {
      "buffer": 0,
      "byteLength": 93720,
      "byteOffset": 0,
      "name": "floatBufferViews",
      "target": 34963
    },
    {
      "buffer": 0,
      "byteLength": 58960,
      "byteOffset": 93720,
      "byteStride": 8,
      "name": "floatBufferViews",
      "target": 34962
    },
    {
      "buffer": 0,
      "byteLength": 176880,
      "byteOffset": 152680,
      "byteStride": 12,
      "name": "floatBufferViews",
      "target": 34962
    },
    {
      "buffer": 0,
      "byteLength": 117920,
      "byteOffset": 329560,
      "byteStride": 16,
      "name": "floatBufferViews",
      "target": 34962
    }
  ],
  "buffers": [
    {
      "byteLength": 447480,
      "uri": "scene.bin"
    }
  ],
  "images": [
    {
      "uri": "textures/lambert2_metallicRoughness.png"
    },
    {
      "uri": "textures/lambert2_baseColor.png"
    },
    {
      "uri": "textures/lambert2_normal.png"
    }
  ],
  "materials": [
    {
      "alphaMode": "BLEND",
      "doubleSided": true,
      "emissiveFactor": [
        1,
        1,
        1
      ],
      "name": "light",
      "pbrMetallicRoughness": {
        "baseColorFactor": [
          0,
          0,
          0,
          0.074393948599999996
        ],
        "metallicFactor": 0,
        "roughnessFactor": 0.59999999999999998
      }
    },
    {
      "doubleSided": true,
      "emissiveFactor": [
        0,
        0,
        0
      ],
      "name": "lambert2",
      "normalTexture": {
        "index": 2,
        "scale": 1,
        "texCoord": 0
      },
      "occlusionTexture": {
        "index": 0,
        "strength": 1,
        "texCoord": 0
      },
      "pbrMetallicRoughness": {
        "baseColorFactor": [
          1,
          1,
          1,
          1
        ],
        "baseColorTexture": {
          "index": 1,
          "texCoord": 0
        },
        "metallicFactor": 1,
        "metallicRoughnessTexture": {
          "index": 0,
          "texCoord": 0
        },
        "roughnessFactor": 0.21378788800000001
      }
    }
  ],
  "meshes": [
    {
      "name": "pCylinder14_light__0",
      "primitives": [
        {
          "attributes": {
            "NORMAL": 1,
            "POSITION": 0,
            "TANGENT": 2,
            "TEXCOORD_0": 3
          },
          "indices": 4,
          "material": 0,
          "mode": 4
        }
      ]
    },
    {
      "name": "polySurface12_lambert2_0",
      "primitives": [
        {
          "attributes": {
            "NORMAL": 6,
            "POSITION": 5,
            "TANGENT": 7,
            "TEXCOORD_0": 8
          },
          "indices": 9,
          "material": 1,
          "mode": 4
        }
      ]
    }
  ],
  "nodes": [
    {
      "children": [
        1
      ],
      "name": "RootNode (gltf orientation matrix)",
      "rotation": [
        -0.70710678118654746,
        -0,
        -0,
        0.70710678118654757
      ]
    },
    {
      "children": [
        2
      ],
      "name": "RootNode (model correction matrix)"
    },
    {
      "children": [
        3
      ],
      "matrix": [
        1,
        0,
        0,
        0,
        0,
        0,
        1,
        0,
        0,
        -1,
        0,
        0,
        0,
        0,
        0,
        1
      ],
      "name": "4412954f74364b99a050bd62ddb5378a.fbx"
    },
    {
      "children": [
        4,
        6
      ],
      "name": "RootNode"
    },
    {
      "children": [
        5
      ],
      "name": "pCylinder14"
    },
    {
      "mesh": 0,
      "name": "pCylinder14_light__0"
    },
    {
      "children": [
        7
      ],
      "name": "polySurface12"
    },
    {
      "mesh": 1,
      "name": "polySurface12_lambert2_0"
    }
  ],
  "samplers": [
    {
      "magFilter": 9729,
      "minFilter": 9987,
      "wrapS": 10497,
      "wrapT": 10497
    }
  ],
  "scene": 0,
  "scenes": [
    {
      "name": "OSG_Scene",
      "nodes": [
        0
      ]
    }
  ],
  "textures": [
    {
      "sampler": 0,
      "source": 0
    },
    {
      "sampler": 0,
      "source": 1
    },
    {
      "sampler": 0,
      "source": 2
    }
  ]
}

